<svg width="161" height="41" viewBox="0 0 161 41" fill="none" xmlns="http://www.w3.org/2000/svg">
<path fill-rule="evenodd" clip-rule="evenodd" d="M154.341 18.7911L139.291 3.74119C138.635 3.08517 138.635 2.02157 139.291 1.36556C139.947 0.709547 141.011 0.709547 141.667 1.36556L159.585 19.2836C160.241 19.9396 160.241 21.0032 159.585 21.6593L141.667 39.5773C141.011 40.2333 139.947 40.2333 139.291 39.5773C138.635 38.9213 138.635 37.8577 139.291 37.2017L154.342 22.1507L96.6559 22.1507C95.8099 22.1507 95.1241 21.3986 95.1241 20.4709C95.1241 19.5431 95.8099 18.7911 96.6559 18.7911L154.341 18.7911Z" fill="#F39B00"/>
<path fill-rule="evenodd" clip-rule="evenodd" d="M3.37015 21.8757L11.7054 30.211C12.0687 30.5743 12.0687 31.1634 11.7054 31.5267C11.3421 31.89 10.753 31.89 10.3897 31.5267L0.465855 21.6029C0.102528 21.2395 0.102528 20.6505 0.465855 20.2871L10.3897 10.3633C10.753 9.99999 11.3421 9.99999 11.7054 10.3633C12.0687 10.7266 12.0687 11.3157 11.7054 11.679L3.36946 20.015H35.3188C35.7874 20.015 36.1673 20.4315 36.1673 20.9453C36.1673 21.4592 35.7874 21.8757 35.3188 21.8757H3.37015Z" fill="#D0C9D6"/>
</svg>
