<svg width="17" height="17" viewBox="0 0 17 17" fill="none" xmlns="http://www.w3.org/2000/svg">
<path d="M15.2451 12.2444C15.5852 12.5863 15.5843 13.138 15.2433 13.479L13.2471 15.4752C6.96919 15.4752 1.88037 10.3864 1.88037 4.10845L1.88387 4.11108L3.89142 2.1044C4.23329 1.76253 4.78677 1.76253 5.12865 2.1044L7.38451 4.36377C7.72552 4.70565 7.72464 5.25912 7.38364 5.60012L5.37784 7.60592L9.74968 11.9778L11.7529 9.97458C12.0947 9.63271 12.65 9.63271 12.991 9.97633L15.2451 12.2444ZM15.8702 8.48029H14.1215C14.1215 5.58701 11.7686 3.23409 8.87531 3.23409V1.48535C12.7321 1.48535 15.8702 4.62346 15.8702 8.48029ZM12.3728 8.48029H10.624C10.624 7.51586 9.83974 6.73156 8.87531 6.73156V4.98282C10.8042 4.98282 12.3728 6.55144 12.3728 8.48029Z" fill="#111111" fill-opacity="0.5"/>
</svg>
