<svg width="40" height="59" viewBox="0 0 40 59" fill="none" xmlns="http://www.w3.org/2000/svg">
<path d="M1.14773 58.2373V50.7818L19.5719 30.9914C21.4455 28.8835 22.9158 27.0489 23.9828 25.4876C25.0497 23.9262 25.8044 22.5079 26.2468 21.2328C26.7152 19.9317 26.9494 18.6435 26.9494 17.3684C26.9494 15.1565 26.3118 13.2828 25.0367 11.7475C23.7876 10.2121 21.94 9.44447 19.4938 9.44447C16.8655 9.44447 14.8748 10.3032 13.5216 12.0207C12.1684 13.7122 11.4918 16.0543 11.4918 19.0469H0.406077L0.328009 18.8127C0.24994 15.3777 0.97858 12.294 2.51393 9.56157C4.0753 6.80315 6.31326 4.61723 9.22782 3.00382C12.1684 1.3904 15.6294 0.583694 19.6109 0.583694C23.5144 0.583694 26.8583 1.28631 29.6427 2.69154C32.4532 4.07075 34.6131 6.00946 36.1224 8.50765C37.6318 11.0058 38.3864 13.8944 38.3864 17.1733C38.3864 19.4372 37.9831 21.5711 37.1764 23.5749C36.3696 25.5526 35.1075 27.6475 33.39 29.8594C31.6725 32.0713 29.4606 34.6086 26.7542 37.4711L15.7075 49.3375L15.7856 49.5327H30.5015L31.087 44.1069H39.9088V58.2373H1.14773Z" fill="#F39B00"/>
</svg>
