<svg width="17" height="17" viewBox="0 0 17 17" fill="none" xmlns="http://www.w3.org/2000/svg">
<path d="M13.2796 2.48535H3.28687C2.73477 2.48535 2.2876 2.93253 2.2876 3.48463V13.4774C2.2876 14.0295 2.73477 14.4767 3.28687 14.4767H8.7829V9.97993H7.28398V7.98138H8.7829V6.68881C8.7829 5.13993 9.72871 4.29654 11.1107 4.29654C11.7727 4.29654 12.3413 4.34601 12.5072 4.36799V5.98682L11.5489 5.98732C10.7974 5.98732 10.652 6.34456 10.652 6.86818V7.98138H12.8704L12.3708 9.97993H10.652V14.4767H13.2796C13.8317 14.4767 14.2789 14.0295 14.2789 13.4774V3.48463C14.2789 2.93253 13.8317 2.48535 13.2796 2.48535Z" fill="#111111" fill-opacity="0.5"/>
</svg>
