<svg width="23" height="23" viewBox="0 0 23 23" fill="none" xmlns="http://www.w3.org/2000/svg">
<path d="M18.7322 2.83496H4.99217C4.23303 2.83496 3.61816 3.44983 3.61816 4.20897V17.949C3.61816 18.7082 4.23303 19.323 4.99217 19.323H12.5492V13.14H10.4882V10.392H12.5492V8.61472C12.5492 6.48501 13.8497 5.32535 15.7499 5.32535C16.6602 5.32535 17.442 5.39336 17.6701 5.42359V7.64948L16.3525 7.65016C15.3192 7.65016 15.1193 8.14137 15.1193 8.86135V10.392H18.1696L17.4826 13.14H15.1193V19.323H18.7322C19.4914 19.323 20.1062 18.7082 20.1062 17.949V4.20897C20.1062 3.44983 19.4914 2.83496 18.7322 2.83496Z" fill="white" fill-opacity="0.8"/>
</svg>
