<svg width="23" height="23" viewBox="0 0 23 23" fill="none" xmlns="http://www.w3.org/2000/svg">
<path d="M11.6464 5.07222C9.68981 5.07222 9.45775 5.07955 8.68526 5.11497C7.85108 5.15283 7.07736 5.32015 6.48196 5.91555C5.88656 6.51096 5.71923 7.28468 5.68137 8.11885C5.64595 8.89135 5.63863 9.1234 5.63863 11.08C5.63863 13.0366 5.64595 13.2686 5.68137 14.0411C5.71923 14.8753 5.88656 15.649 6.48196 16.2444C7.07736 16.8398 7.85108 17.0071 8.68526 17.045C9.45775 17.0804 9.68981 17.0877 11.6464 17.0877C13.603 17.0877 13.835 17.0804 14.6075 17.045C15.4417 17.0071 16.2154 16.8398 16.8108 16.2444C17.4062 15.649 17.5735 14.8753 17.6114 14.0411C17.6468 13.2686 17.6542 13.0366 17.6542 11.08C17.6542 9.1234 17.6468 8.89135 17.6114 8.11885C17.5735 7.28468 17.4062 6.51096 16.8108 5.91555C16.2154 5.32015 15.4417 5.15283 14.6075 5.11497C13.835 5.07955 13.603 5.07222 11.6464 5.07222ZM11.6464 3.75195C13.6366 3.75195 13.8863 3.7605 14.668 3.79592C15.8588 3.85027 16.9049 4.14217 17.7445 4.98184C18.5842 5.82151 18.8761 6.86759 18.9305 8.05839C18.9659 8.84005 18.9744 9.08981 18.9744 11.08C18.9744 13.0702 18.9659 13.3199 18.9305 14.1016C18.8761 15.2924 18.5842 16.3385 17.7445 17.1781C16.9049 18.0178 15.8588 18.3097 14.668 18.364C13.8863 18.3995 13.6366 18.408 11.6464 18.408C9.65622 18.408 9.40646 18.3995 8.6248 18.364C7.43399 18.3097 6.38792 18.0178 5.54825 17.1781C4.70858 16.3385 4.41668 15.2924 4.36233 14.1016C4.32691 13.3199 4.31836 13.0702 4.31836 11.08C4.31836 9.08981 4.32691 8.84005 4.36233 8.05839C4.41668 6.86759 4.70858 5.82151 5.54825 4.98184C6.38792 4.14217 7.43399 3.85027 8.6248 3.79592C9.40646 3.7605 9.65622 3.75195 11.6464 3.75195ZM11.6464 7.31704C13.7245 7.31704 15.4093 9.00188 15.4093 11.08C15.4093 13.1581 13.7245 14.8429 11.6464 14.8429C9.56828 14.8429 7.88345 13.1581 7.88345 11.08C7.88345 9.00188 9.56828 7.31704 11.6464 7.31704ZM11.6464 13.5227C12.9954 13.5227 14.0891 12.429 14.0891 11.08C14.0891 9.73102 12.9954 8.63731 11.6464 8.63731C10.2974 8.63731 9.20371 9.73102 9.20371 11.08C9.20371 12.429 10.2974 13.5227 11.6464 13.5227ZM15.5583 8.0474C15.0727 8.0474 14.679 7.6537 14.679 7.16804C14.679 6.68238 15.0727 6.28867 15.5583 6.28867C16.044 6.28867 16.4377 6.68238 16.4377 7.16804C16.4377 7.6537 16.044 8.0474 15.5583 8.0474Z" fill="white" fill-opacity="0.8"/>
</svg>
