<svg width="17" height="17" viewBox="0 0 17 17" fill="none" xmlns="http://www.w3.org/2000/svg">
<path d="M8.21571 4.11156C6.79274 4.11156 6.62397 4.11689 6.06216 4.14265C5.45548 4.17019 4.89278 4.29188 4.45976 4.7249C4.02674 5.15792 3.90505 5.72062 3.87751 6.32729C3.85175 6.88911 3.84642 7.05787 3.84642 8.48084C3.84642 9.90382 3.85175 10.0726 3.87751 10.6344C3.90505 11.2411 4.02674 11.8038 4.45976 12.2368C4.89278 12.6698 5.45548 12.7915 6.06216 12.819C6.62397 12.8448 6.79274 12.8501 8.21571 12.8501C9.63868 12.8501 9.80745 12.8448 10.3693 12.819C10.9759 12.7915 11.5386 12.6698 11.9717 12.2368C12.4047 11.8038 12.5264 11.2411 12.5539 10.6344C12.5797 10.0726 12.585 9.90382 12.585 8.48084C12.585 7.05787 12.5797 6.88911 12.5539 6.32729C12.5264 5.72062 12.4047 5.15792 11.9717 4.7249C11.5386 4.29188 10.9759 4.17019 10.3693 4.14265C9.80745 4.11689 9.63868 4.11156 8.21571 4.11156ZM8.21571 3.15137C9.66311 3.15137 9.84475 3.15758 10.4132 3.18334C11.2793 3.22287 12.0401 3.43516 12.6507 4.04583C13.2614 4.6565 13.4737 5.41728 13.5132 6.28332C13.539 6.8518 13.5452 7.03345 13.5452 8.48084C13.5452 9.92824 13.539 10.1099 13.5132 10.6784C13.4737 11.5444 13.2614 12.3052 12.6507 12.9159C12.0401 13.5265 11.2793 13.7388 10.4132 13.7783C9.84475 13.8041 9.66311 13.8103 8.21571 13.8103C6.76831 13.8103 6.58666 13.8041 6.01819 13.7783C5.15215 13.7388 4.39136 13.5265 3.78069 12.9159C3.17003 12.3052 2.95773 11.5444 2.91821 10.6784C2.89245 10.1099 2.88623 9.92824 2.88623 8.48084C2.88623 7.03345 2.89245 6.8518 2.91821 6.28332C2.95773 5.41728 3.17003 4.6565 3.78069 4.04583C4.39136 3.43516 5.15215 3.22287 6.01819 3.18334C6.58666 3.15758 6.76831 3.15137 8.21571 3.15137ZM8.21571 5.74416C9.72706 5.74416 10.9524 6.96949 10.9524 8.48084C10.9524 9.9922 9.72706 11.2175 8.21571 11.2175C6.70436 11.2175 5.47902 9.9922 5.47902 8.48084C5.47902 6.96949 6.70436 5.74416 8.21571 5.74416ZM8.21571 10.2573C9.19678 10.2573 9.9922 9.46191 9.9922 8.48084C9.9922 7.49978 9.19678 6.70435 8.21571 6.70435C7.23464 6.70435 6.43922 7.49978 6.43922 8.48084C6.43922 9.46191 7.23464 10.2573 8.21571 10.2573ZM11.0608 6.27533C10.7076 6.27533 10.4212 5.989 10.4212 5.63579C10.4212 5.28259 10.7076 4.99625 11.0608 4.99625C11.414 4.99625 11.7003 5.28259 11.7003 5.63579C11.7003 5.989 11.414 6.27533 11.0608 6.27533Z" fill="#111111" fill-opacity="0.5"/>
</svg>
