<svg width="15" height="15" viewBox="0 0 15 15" fill="none" xmlns="http://www.w3.org/2000/svg">
<path d="M14.2451 11.2444C14.5852 11.5863 14.5843 12.138 14.2433 12.479L12.2471 14.4752C5.96919 14.4752 0.880371 9.38641 0.880371 3.10845L0.883869 3.11108L2.89142 1.1044C3.23329 0.762526 3.78677 0.762526 4.12865 1.1044L6.38451 3.36377C6.72552 3.70565 6.72464 4.25912 6.38364 4.60012L4.37784 6.60592L8.74968 10.9778L10.7529 8.97458C11.0947 8.63271 11.65 8.63271 11.991 8.97633L14.2451 11.2444ZM14.8702 7.48029H13.1215C13.1215 4.58701 10.7686 2.23409 7.87531 2.23409V0.485352C11.7321 0.485352 14.8702 3.62346 14.8702 7.48029ZM11.3728 7.48029H9.62405C9.62405 6.51586 8.83974 5.73156 7.87531 5.73156V3.98282C9.80416 3.98282 11.3728 5.55144 11.3728 7.48029Z" fill="#111111" fill-opacity="0.5"/>
</svg>
