<svg width="104" height="79" viewBox="0 0 104 79" fill="none" xmlns="http://www.w3.org/2000/svg">
<path d="M26.0026 34.9413C26.899 28.0498 32.9068 21.812 43.8963 16.3762L45.8752 15.3973L37.7621 0.208984L35.9305 1.15032C12.6912 13.0954 0.907715 29.9766 0.907715 51.3255C0.907715 58.6916 3.21373 65.0536 7.76217 70.235C12.3744 75.4887 17.9716 78.1526 24.3994 78.1526C30.175 78.1526 35.0725 76.0672 38.9557 71.9536C42.8137 67.8664 44.7698 62.7899 44.7698 56.8645C44.7698 51.2654 42.7939 46.2756 38.8969 42.0336C35.4599 38.2919 31.1289 35.9118 26.0026 34.9413Z" fill="#111111"/>
<path d="M84.1294 34.9515C85.0155 28.0549 90.977 21.8144 101.884 16.3785L103.834 15.4069L95.918 0.208984L94.0673 1.15529C70.7095 13.0987 58.8662 29.9793 58.8662 51.328C58.8662 58.6981 61.203 65.063 65.8112 70.2454C70.4769 75.4921 76.1002 78.1526 82.5262 78.1526C88.312 78.1526 93.1895 76.0633 97.0231 71.9426C100.824 67.8574 102.751 62.7851 102.751 56.8663C102.751 51.2675 100.774 46.2781 96.8755 42.0367C93.4436 38.3034 89.1626 35.9255 84.1294 34.9515Z" fill="#111111"/>
</svg>
