<svg width="62" height="46" viewBox="0 0 62 46" fill="none" xmlns="http://www.w3.org/2000/svg">
<g opacity="0.5">
<path d="M15.9231 20.5086C16.461 16.4443 20.0657 12.7656 26.6594 9.55991L27.8467 8.98259L22.9788 0.0253906L21.8799 0.580537C7.93627 7.62506 0.866211 17.5806 0.866211 30.171C0.866211 34.5151 2.24982 38.2671 4.97888 41.3228C7.74622 44.4211 11.1045 45.9921 14.9612 45.9921C18.4266 45.9921 21.3651 44.7623 23.695 42.3363C26.0098 39.9259 27.1835 36.9321 27.1835 33.4376C27.1835 30.1356 25.9979 27.1929 23.6597 24.6912C21.5975 22.4846 18.9989 21.0809 15.9231 20.5086Z" fill="#F39B00"/>
<path d="M49.9992 20.5146C50.5309 16.4473 54.1078 12.767 60.652 9.56124L61.8218 8.98826L57.0724 0.0253906L55.962 0.583469C41.9473 7.62704 34.8413 17.5822 34.8413 30.1725C34.8413 34.519 36.2434 38.2726 39.0083 41.3289C41.8077 44.4232 45.1817 45.9921 49.0373 45.9921C52.5088 45.9921 55.4353 44.76 57.7354 42.3298C60.0159 39.9206 61.1722 36.9293 61.1722 33.4387C61.1722 30.1368 59.9861 27.1944 57.6469 24.693C55.5877 22.4913 53.0192 21.089 49.9992 20.5146Z" fill="#F39B00"/>
</g>
</svg>
