<svg width="41" height="59" viewBox="0 0 41 59" fill="none" xmlns="http://www.w3.org/2000/svg">
<path d="M20.123 58.8334C16.5059 58.8334 13.214 58.1958 10.2474 56.9207C7.28076 55.6456 4.92569 53.798 3.18216 51.3778C1.46465 48.9317 0.644932 45.9781 0.723 42.5171L0.801069 42.2829H11.8478C11.8478 43.7922 12.1861 45.1324 12.8627 46.3034C13.5393 47.4744 14.4891 48.3982 15.7122 49.0748C16.9613 49.7514 18.4315 50.0897 20.123 50.0897C22.7513 50.0897 24.8202 49.3481 26.3295 47.8648C27.8648 46.3815 28.6325 44.3387 28.6325 41.7364C28.6325 39.0821 27.8778 37.0132 26.3685 35.5299C24.8592 34.0466 22.5822 33.305 19.5375 33.305H13.3701V24.7565H19.7717C21.5933 24.7565 23.0896 24.4442 24.2607 23.8197C25.4317 23.1691 26.3035 22.2583 26.876 21.0873C27.4485 19.9162 27.7347 18.537 27.7347 16.9496C27.7347 14.5555 27.0841 12.6559 25.783 11.2506C24.4819 9.84539 22.5952 9.14277 20.123 9.14277C18.6397 9.14277 17.3256 9.44203 16.1806 10.0406C15.0356 10.6131 14.1378 11.4328 13.4872 12.4997C12.8627 13.5667 12.5504 14.8027 12.5504 16.208H1.50369L1.42562 15.9738C1.34755 12.9551 2.0892 10.2748 3.65057 7.93271C5.21194 5.56463 7.41087 3.71701 10.2474 2.38984C13.1099 1.03665 16.3757 0.360061 20.045 0.360061C25.796 0.360061 30.4151 1.76529 33.9021 4.57576C37.3892 7.36021 39.1327 11.3157 39.1327 16.4422C39.1327 19.0965 38.3911 21.4906 36.9078 23.6245C35.4505 25.7584 33.2646 27.5019 30.35 28.8551C33.4988 29.9741 35.8929 31.6916 37.5323 34.0076C39.1978 36.3236 40.0305 39.017 40.0305 42.0877C40.0305 45.5487 39.1718 48.5283 37.4542 51.0265C35.7367 53.5247 33.3687 55.4504 30.35 56.8036C27.3574 58.1568 23.9484 58.8334 20.123 58.8334Z" fill="#F39B00"/>
</svg>
