<svg width="23" height="23" viewBox="0 0 23 23" fill="none" xmlns="http://www.w3.org/2000/svg">
<path fill-rule="evenodd" clip-rule="evenodd" d="M20.6175 5.92655C19.9648 6.25288 19.3121 6.36166 18.5507 6.47043C19.3121 6.03533 19.856 5.38268 20.0736 4.51247C19.4209 4.94757 18.6595 5.16513 17.7893 5.38268C17.1366 4.73002 16.1577 4.29492 15.1787 4.29492C13.3295 4.29492 11.6979 5.92655 11.6979 7.88451C11.6979 8.21084 11.6979 8.42839 11.8066 8.64594C8.8697 8.53717 6.15032 7.12308 4.40991 4.94757C4.08358 5.49145 3.97481 6.03533 3.97481 6.79676C3.97481 7.99329 4.62746 9.08104 5.60644 9.7337C5.06256 9.7337 4.51868 9.51615 3.97481 9.29859C3.97481 11.039 5.17134 12.4531 6.80297 12.7794C6.47664 12.8882 6.15032 12.8882 5.82399 12.8882C5.60644 12.8882 5.38889 12.8882 5.17134 12.7794C5.60644 14.1935 6.91175 15.2812 8.54338 15.2812C7.34685 16.2602 5.82399 16.8041 4.08358 16.8041C3.75726 16.8041 3.53971 16.8041 3.21338 16.8041C4.84501 17.7831 6.69419 18.4357 8.65215 18.4357C15.1787 18.4357 18.7683 12.997 18.7683 8.31961C18.7683 8.21084 18.7683 7.99329 18.7683 7.88451C19.5297 7.34064 20.1824 6.68798 20.6175 5.92655Z" fill="white" fill-opacity="0.8"/>
</svg>
